<svg width="33" height="33" viewBox="0 0 33 33" fill="none" xmlns="http://www.w3.org/2000/svg">
<path d="M11.2571 16.5807C11.2571 13.6787 13.6083 11.3256 16.5095 11.3256C19.4106 11.3256 21.763 13.6787 21.763 16.5807C21.763 19.4827 19.4106 21.8358 16.5095 21.8358C13.6083 21.8358 11.2571 19.4827 11.2571 16.5807ZM8.41716 16.5807C8.41716 21.0514 12.0401 24.6753 16.5095 24.6753C20.9788 24.6753 24.6017 21.0514 24.6017 16.5807C24.6017 12.11 20.9788 8.48609 16.5095 8.48609C12.0401 8.48609 8.41716 12.11 8.41716 16.5807ZM23.031 8.16513C23.0308 8.53927 23.1416 8.90505 23.3493 9.21622C23.5569 9.52739 23.8522 9.76997 24.1977 9.91328C24.5432 10.0566 24.9234 10.0942 25.2903 10.0214C25.6572 9.94852 25.9942 9.76849 26.2588 9.50404C26.5234 9.23959 26.7036 8.9026 26.7767 8.53568C26.8499 8.16876 26.8126 7.78839 26.6696 7.44267C26.5266 7.09696 26.2843 6.80142 25.9734 6.59343C25.6625 6.38545 25.2969 6.27436 24.9229 6.27421H24.9221C24.4207 6.27444 23.94 6.47372 23.5854 6.82826C23.2308 7.1828 23.0314 7.66363 23.031 8.16513ZM10.1426 29.4122C8.60615 29.3422 7.77102 29.0862 7.21604 28.8699C6.48026 28.5834 5.95528 28.2422 5.40332 27.6908C4.85137 27.1394 4.5097 26.6148 4.22452 25.8788C4.00817 25.3239 3.75224 24.4883 3.68239 22.9514C3.60599 21.2897 3.59074 20.7906 3.59074 16.5808C3.59074 12.3711 3.60725 11.8733 3.68239 10.2103C3.75236 8.67336 4.01019 7.83938 4.22452 7.28285C4.51096 6.54686 4.85212 6.02173 5.40332 5.46961C5.95453 4.9175 6.479 4.57573 7.21604 4.29047C7.77077 4.07406 8.60615 3.81805 10.1426 3.74819C11.8038 3.67176 12.3028 3.6565 16.5095 3.6565C20.7161 3.6565 21.2156 3.67302 22.8782 3.74819C24.4146 3.81818 25.2484 4.07608 25.8048 4.29047C26.5405 4.57573 27.0655 4.91825 27.6175 5.46961C28.1694 6.02098 28.5098 6.54686 28.7963 7.28285C29.0126 7.83775 29.2686 8.67336 29.3384 10.2103C29.4148 11.8733 29.4301 12.3711 29.4301 16.5808C29.4301 20.7906 29.4148 21.2883 29.3384 22.9514C29.2684 24.4883 29.0112 25.3237 28.7963 25.8788C28.5098 26.6148 28.1687 27.1399 27.6175 27.6908C27.0663 28.2417 26.5405 28.5834 25.8048 28.8699C25.25 29.0864 24.4146 29.3424 22.8782 29.4122C21.217 29.4887 20.718 29.5039 16.5095 29.5039C12.3009 29.5039 11.8033 29.4887 10.1426 29.4122ZM10.0121 0.912178C8.33446 0.988602 7.18805 1.2547 6.18688 1.64438C5.15004 2.04681 4.2723 2.58669 3.39519 3.46267C2.51808 4.33864 1.97974 5.21802 1.57743 6.25517C1.18786 7.25725 0.921841 8.40336 0.845439 10.0815C0.767777 11.7624 0.75 12.2997 0.75 16.5807C0.75 20.8617 0.767777 21.3991 0.845439 23.0799C0.921841 24.7582 1.18786 25.9042 1.57743 26.9063C1.97974 27.9428 2.51821 28.8232 3.39519 29.6988C4.27217 30.5744 5.15004 31.1135 6.18688 31.517C7.18994 31.9067 8.33446 32.1728 10.0121 32.2492C11.6934 32.3257 12.2297 32.3447 16.5095 32.3447C20.7892 32.3447 21.3264 32.3269 23.0068 32.2492C24.6846 32.1728 25.8302 31.9067 26.832 31.517C27.8682 31.1135 28.7466 30.5747 29.6237 29.6988C30.5008 28.8228 31.038 27.9428 31.4415 26.9063C31.831 25.9042 32.0983 24.7581 32.1735 23.0799C32.2499 21.3978 32.2676 20.8617 32.2676 16.5807C32.2676 12.2997 32.2499 11.7624 32.1735 10.0815C32.0971 8.40323 31.831 7.25662 31.4415 6.25517C31.038 5.21865 30.4994 4.34003 29.6237 3.46267C28.748 2.58531 27.8682 2.04681 26.8333 1.64438C25.8302 1.2547 24.6844 0.987341 23.008 0.912178C21.3277 0.835754 20.7905 0.816711 16.5107 0.816711C12.2309 0.816711 11.6934 0.834493 10.0121 0.912178Z" fill="black"/>
</svg>
