<svg width="30" height="26" viewBox="0 0 30 26" fill="none" xmlns="http://www.w3.org/2000/svg">
<path d="M2.52671 11.3841C2.52671 11.3841 15.3439 5.98575 19.7891 4.08485C21.4931 3.32456 27.2719 0.891399 27.2719 0.891399C27.2719 0.891399 29.9391 -0.173016 29.7168 2.4121C29.6427 3.47662 29.05 7.20223 28.4574 11.2321C27.5683 16.9347 26.6051 23.1694 26.6051 23.1694C26.6051 23.1694 26.457 24.9182 25.1975 25.2224C23.938 25.5265 21.8635 24.1579 21.4931 23.8537C21.1967 23.6257 15.9365 20.2041 14.0103 18.5313C13.4916 18.0752 12.899 17.1628 14.0843 16.0983C16.7515 13.5891 19.9372 10.4718 21.8635 8.49489C22.7526 7.58243 23.6416 5.45349 19.9372 8.03861C14.6771 11.7643 9.49095 15.2619 9.49095 15.2619C9.49095 15.2619 8.30551 16.0222 6.08291 15.3379C3.86021 14.6537 1.26715 13.7412 1.26715 13.7412C1.26715 13.7412 -0.510851 12.6007 2.52671 11.3841Z" fill="black"/>
</svg>
